<svg width="165" height="51" viewBox="0 0 165 51" fill="none" xmlns="http://www.w3.org/2000/svg">
<path d="M154.229 29.4456C154.166 29.8868 154.134 30.1861 154.134 30.3437C154.134 31.0369 154.324 31.5726 154.702 31.9507C155.111 32.2973 155.694 32.4706 156.45 32.4706C157.301 32.4706 158.199 32.2185 159.145 31.7144L160.279 37.9062C158.514 38.9145 156.293 39.4186 153.615 39.4186C150.968 39.4186 148.872 38.7569 147.328 37.4335C145.784 36.1101 145.012 34.2667 145.012 31.9034C145.012 30.9896 145.091 30.1861 145.249 29.4929L149.597 7.65625H158.577L157.254 14.3207H163.02L161.697 21.0324H155.931L154.229 29.4456Z" fill="#0AFE87"/>
<path d="M129.988 12.9531C132.415 12.9531 134.573 13.3943 136.464 14.2766C138.386 15.1273 139.883 16.4193 140.954 18.1523C142.025 19.8854 142.561 21.9808 142.561 24.4386C142.561 24.7537 142.529 25.2894 142.466 26.0457L123.466 29.5433C123.812 30.5831 124.443 31.3551 125.356 31.8593C126.302 32.332 127.562 32.5683 129.138 32.5683C130.24 32.5683 131.312 32.395 132.352 32.0484C133.423 31.6702 134.384 31.1503 135.235 30.4886L138.969 36.1132C135.975 38.3189 132.336 39.4218 128.05 39.4218C125.341 39.4218 122.946 38.9491 120.866 38.0038C118.818 37.027 117.227 35.6721 116.092 33.939C114.989 32.1744 114.438 30.1105 114.438 27.7472C114.438 24.9428 115.084 22.422 116.376 20.1847C117.699 17.916 119.527 16.1514 121.859 14.891C124.222 13.5991 126.932 12.9531 129.988 12.9531ZM129.516 19.334C127.877 19.334 126.538 19.8381 125.498 20.8465C124.49 21.8233 123.812 23.131 123.466 24.7695L134.242 22.7843C134.053 21.6815 133.533 20.8307 132.682 20.232C131.863 19.6333 130.808 19.334 129.516 19.334Z" fill="#0AFE87"/>
<path d="M0 41.7227H164.52L163.611 48.9943C126.344 43.5406 31.8133 41.7227 0 41.7227Z" fill="#0AFE87"/>
<path d="M101.236 12.9574C103.127 12.9574 104.892 13.43 106.53 14.3754C108.2 15.2892 109.539 16.6283 110.548 18.3929C111.556 20.1575 112.06 22.2214 112.06 24.5847C112.06 27.3891 111.43 29.9257 110.17 32.1944C108.941 34.4317 107.255 36.1963 105.112 37.4882C103.001 38.7801 100.685 39.4261 98.1641 39.4261C94.1938 39.4261 91.4682 38.0711 89.9872 35.3612L89.2782 39.0007H80.7231L87.7184 3.92969H96.6989L94.4301 15.3207C96.3523 13.7452 98.621 12.9574 101.236 12.9574ZM96.8879 32.1944C98.684 32.1944 100.149 31.5327 101.284 30.2093C102.418 28.8859 102.985 27.1685 102.985 25.0574C102.985 23.5449 102.544 22.3475 101.662 21.4652C100.811 20.5829 99.6293 20.1417 98.1168 20.1417C96.3207 20.1417 94.8555 20.8035 93.7212 22.1269C92.5868 23.4503 92.0196 25.1834 92.0196 27.3261C92.0196 28.8386 92.445 30.036 93.2958 30.9183C94.178 31.7691 95.3754 32.1944 96.8879 32.1944Z" fill="#0AFE87"/>
<path d="M63.5167 39.4218C60.8068 39.4218 58.4435 38.9491 56.4268 38.0038C54.4102 37.027 52.8504 35.6563 51.7476 33.8917C50.6447 32.1271 50.0933 30.079 50.0933 27.7472C50.0933 24.9428 50.7707 22.422 52.1257 20.1847C53.4806 17.9475 55.3555 16.1829 57.7503 14.891C60.1451 13.5991 62.8392 12.9531 65.8327 12.9531C68.5426 12.9531 70.9058 13.4415 72.9225 14.4184C74.9391 15.3637 76.4989 16.7186 77.6018 18.4832C78.7046 20.2163 79.2561 22.2487 79.2561 24.5804C79.2561 27.3848 78.5786 29.9214 77.2236 32.1902C75.8687 34.4274 73.9938 36.192 71.5991 37.4839C69.2358 38.7758 66.5416 39.4218 63.5167 39.4218ZM64.0366 32.1902C65.8327 32.1902 67.2979 31.5285 68.4323 30.205C69.5666 28.8816 70.1338 27.1643 70.1338 25.0531C70.1338 23.5406 69.7084 22.3432 68.8576 21.4609C68.0069 20.5786 66.8252 20.1375 65.3127 20.1375C63.5167 20.1375 62.0514 20.7992 60.9171 22.1226C59.7827 23.4461 59.2155 25.1791 59.2155 27.3218C59.2155 28.8343 59.6409 30.0317 60.4917 30.914C61.3424 31.7648 62.5241 32.1902 64.0366 32.1902Z" fill="white"/>
<path d="M6.34393 13.3836H15.2771L10.1724 39.0014H1.23926L6.34393 13.3836ZM12.0631 10.5476C10.519 10.5476 9.27439 10.1222 8.32908 9.27146C7.38377 8.42068 6.91111 7.36508 6.91111 6.10467C6.91111 4.62368 7.43104 3.41054 8.47088 2.46523C9.54223 1.48841 10.9444 1 12.6775 1C14.253 1 15.5134 1.40963 16.4587 2.2289C17.4041 3.01666 17.8767 4.04074 17.8767 5.30116C17.8767 6.84516 17.341 8.10557 16.2697 9.08239C15.1983 10.0592 13.7961 10.5476 12.0631 10.5476Z" fill="white"/>
<path d="M32.5252 12.8477C34.2957 12.8477 35.7962 13.2078 37.0266 13.928C38.257 14.6482 39.1123 15.5935 39.5924 16.7639L40.2226 13.2078H47.9201L43.5087 38.2808C43.0885 40.5915 42.2483 42.6772 40.9879 44.5378C39.7575 46.4284 38.0919 47.9289 35.9913 49.0392C33.9206 50.1496 31.5048 50.7048 28.7439 50.7048C25.0228 50.7048 22.1568 49.8195 20.1462 48.0489C18.1356 46.3084 17.2353 43.9376 17.4453 40.9366H25.0528C25.1428 41.8969 25.5779 42.6472 26.3582 43.1874C27.1684 43.7575 28.2338 44.0426 29.5542 44.0426C31.1447 44.0426 32.4951 43.5775 33.6055 42.6472C34.7159 41.7469 35.4511 40.2914 35.8112 38.2808L36.4414 34.7247C35.4811 35.895 34.2657 36.8553 32.7952 37.6056C31.3548 38.3258 29.7493 38.6859 27.9787 38.6859C26.2081 38.6859 24.6326 38.2808 23.2522 37.4705C21.9018 36.6603 20.8364 35.5049 20.0562 34.0044C19.3059 32.5039 18.9308 30.7484 18.9308 28.7377C18.9308 27.8074 19.0208 26.8021 19.2009 25.7218C19.651 23.1409 20.5363 20.8752 21.8567 18.9246C23.1772 16.974 24.7677 15.4735 26.6283 14.4232C28.4889 13.3728 30.4545 12.8477 32.5252 12.8477ZM38.0169 25.7668C38.1069 25.2266 38.152 24.7315 38.152 24.2813C38.152 22.8108 37.7168 21.6555 36.8465 20.8152C36.0063 19.9749 34.9259 19.5548 33.6055 19.5548C32.075 19.5548 30.6796 20.11 29.4192 21.2203C28.1588 22.3007 27.3635 23.8012 27.0334 25.7218C26.9434 26.2619 26.8984 26.7571 26.8984 27.2072C26.8984 28.6777 27.3185 29.8481 28.1588 30.7184C29.029 31.5586 30.1094 31.9788 31.3998 31.9788C32.9303 31.9788 34.3257 31.4236 35.5861 30.3132C36.8465 29.2029 37.6568 27.6874 38.0169 25.7668Z" fill="white"/>
<path d="M73.2149 10.6161L63.6467 9.68979C63.1015 9.63702 62.6166 10.0353 62.5634 10.5795C62.5102 11.1236 62.909 11.6075 63.4541 11.6602L73.0223 12.5865C73.5675 12.6393 74.0525 12.241 74.1056 11.6969C74.1588 11.1527 73.76 10.6689 73.2149 10.6161Z" fill="#0AFE87"/>
<path d="M72.4778 6.23114C72.2012 6.38533 71.8519 6.26312 71.7328 5.97031C70.9571 4.06429 70.1811 2.15848 69.4054 0.252455C69.4064 0.242563 69.4074 0.23243 69.4083 0.222538C69.4052 0.227347 69.402 0.231915 69.3991 0.236748C69.397 0.231424 69.3948 0.226341 69.3928 0.221041C69.3919 0.230932 69.3909 0.241065 69.3899 0.250957C68.2595 1.97255 67.1289 3.69387 65.9985 5.41547C65.8249 5.67997 65.4585 5.73291 65.217 5.5286C64.0786 4.56579 62.9404 3.60277 61.802 2.63997C62.0649 4.59793 62.3275 6.55587 62.5904 8.51383L74.4774 9.664C75.1146 7.79313 75.7516 5.92224 76.3888 4.05137C75.0852 4.77789 73.7818 5.50467 72.4782 6.23118L72.4778 6.23114Z" fill="#0AFE87"/>
</svg>
